<svg xmlns="http://www.w3.org/2000/svg" width="36" height="36" viewBox="0 0 36 36" fill="none">
    <path fill-rule="evenodd" clip-rule="evenodd" d="M18 1.5C18.749 1.5 19.3562 2.10718 19.3562 2.85616L19.356 16.643L33.1438 16.6438C33.8928 16.6438 34.5 17.251 34.5 18C34.5 18.749 33.8928 19.3562 33.1438 19.3562L19.356 19.356L19.3562 33.1438C19.3562 33.8928 18.749 34.5 18 34.5C17.251 34.5 16.6438 33.8928 16.6438 33.1438L16.643 19.356L2.85616 19.3562C2.10718 19.3562 1.5 18.749 1.5 18C1.5 17.251 2.10718 16.6438 2.85616 16.6438L16.643 16.643L16.6438 2.85616C16.6438 2.10718 17.251 1.5 18 1.5Z" fill="#FFFFFF"/>
</svg>