{
    "asset" : {
        "generator" : "Khronos glTF Blender I/O v3.2.43",
        "version" : "2.0"
    },
    "scene" : 0,
    "scenes" : [
        {
            "name" : "Scene",
            "nodes" : [
                0,
                1,
                2
            ]
        }
    ],
    "nodes" : [
        {
            "mesh" : 0,
            "name" : "AX47R9980OSD",
            "rotation" : [
                0.7071068286895752,
                0,
                0,
                0.7071068286895752
            ],
            "scale" : [
                0.009999999776482582,
                0.009999999776482582,
                0.009999999776482582
            ]
        },
        {
            "mesh" : 1,
            "name" : "AX47R9980OSD2",
            "rotation" : [
                0.7071068286895752,
                0,
                0,
                0.7071068286895752
            ],
            "scale" : [
                0.009999999776482582,
                0.009999999776482582,
                0.009999999776482582
            ]
        },
        {
            "mesh" : 2,
            "name" : "AX47R9980OSD3",
            "rotation" : [
                0.7071068286895752,
                0,
                0,
                0.7071068286895752
            ],
            "scale" : [
                0.009999999776482582,
                0.009999999776482582,
                0.009999999776482582
            ]
        }
    ],
    "materials" : [
        {
            "doubleSided" : true,
            "name" : "AX47R9980OSD_01",
            "pbrMetallicRoughness" : {
                "baseColorFactor" : [
                    0,
                    0,
                    0,
                    1
                ],
                "roughnessFactor" : 0.858578622341156
            }
        },
        {
            "doubleSided" : true,
            "name" : "AX47R9980OSD_02",
            "pbrMetallicRoughness" : {
                "baseColorFactor" : [
                    0.2,
                    0.2,
                    0.2,
                    1
                ],
                "metallicFactor" : 0,
                "roughnessFactor" : 1
            }
        },
        {
            "doubleSided" : true,
            "name" : "AX47R9980OSD_03",
            "pbrMetallicRoughness" : {
                "baseColorFactor" : [
                    0.500000011920929,
                    0.500000011920929,
                    0.500000011920929,
                    1
                ],
                "metallicFactor" : 0,
                "roughnessFactor" : 0.7
            }
        }
    ],
    "meshes" : [
        {
            "name" : "Mesh",
            "primitives" : [
                {
                    "attributes" : {
                        "POSITION" : 0,
                        "NORMAL" : 1,
                        "TEXCOORD_0" : 2
                    },
                    "indices" : 3,
                    "material" : 0
                }
            ]
        },
        {
            "name" : "Mesh2",
            "primitives" : [
                {
                    "attributes" : {
                        "POSITION" : 4,
                        "NORMAL" : 5,
                        "TEXCOORD_0" : 6
                    },
                    "indices" : 7,
                    "material" : 1
                }
            ]
        },
        {
            "name" : "Mesh3",
            "primitives" : [
                {
                    "attributes" : {
                        "POSITION" : 8,
                        "NORMAL" : 9,
                        "TEXCOORD_0" : 10
                    },
                    "indices" : 11,
                    "material" : 2
                }
            ]
        }
    ],
    "accessors" : [
        {
            "bufferView" : 0,
            "componentType" : 5126,
            "count" : 465,
            "max" : [
                17.837360382080078,
                18.587434768676758,
                -1.1933178029721603e-05
            ],
            "min" : [
                -17.837305068969727,
                -14.917778015136719,
                -39.26172637939453
            ],
            "type" : "VEC3"
        },
        {
            "bufferView" : 1,
            "componentType" : 5126,
            "count" : 465,
            "type" : "VEC3"
        },
        {
            "bufferView" : 2,
            "componentType" : 5126,
            "count" : 465,
            "type" : "VEC2"
        },
        {
            "bufferView" : 3,
            "componentType" : 5123,
            "count" : 1848,
            "type" : "SCALAR"
        },
        {
            "bufferView" : 4,
            "componentType" : 5126,
            "count" : 922,
            "max" : [
                18.35003662109375,
                18.273868560791016,
                -1.5809251070022583
            ],
            "min" : [
                -18.34998321533203,
                -19,
                -43.599998474121094
            ],
            "type" : "VEC3"
        },
        {
            "bufferView" : 5,
            "componentType" : 5126,
            "count" : 922,
            "type" : "VEC3"
        },
        {
            "bufferView" : 6,
            "componentType" : 5126,
            "count" : 922,
            "type" : "VEC2"
        },
        {
            "bufferView" : 7,
            "componentType" : 5123,
            "count" : 4644,
            "type" : "SCALAR"
        },
        {
            "bufferView" : 8,
            "componentType" : 5126,
            "count" : 411,
            "max" : [
                18.35003662109375,
                18.999998092651367,
                -1.5809047222137451
            ],
            "min" : [
                -18.35003662109375,
                -18.936603546142578,
                -43.60006332397461
            ],
            "type" : "VEC3"
        },
        {
            "bufferView" : 9,
            "componentType" : 5126,
            "count" : 411,
            "type" : "VEC3"
        },
        {
            "bufferView" : 10,
            "componentType" : 5126,
            "count" : 411,
            "type" : "VEC2"
        },
        {
            "bufferView" : 11,
            "componentType" : 5123,
            "count" : 1884,
            "type" : "SCALAR"
        }
    ],
    "bufferViews" : [
        {
            "buffer" : 0,
            "byteLength" : 5580,
            "byteOffset" : 0
        },
        {
            "buffer" : 0,
            "byteLength" : 5580,
            "byteOffset" : 5580
        },
        {
            "buffer" : 0,
            "byteLength" : 3720,
            "byteOffset" : 11160
        },
        {
            "buffer" : 0,
            "byteLength" : 3696,
            "byteOffset" : 14880
        },
        {
            "buffer" : 0,
            "byteLength" : 11064,
            "byteOffset" : 18576
        },
        {
            "buffer" : 0,
            "byteLength" : 11064,
            "byteOffset" : 29640
        },
        {
            "buffer" : 0,
            "byteLength" : 7376,
            "byteOffset" : 40704
        },
        {
            "buffer" : 0,
            "byteLength" : 9288,
            "byteOffset" : 48080
        },
        {
            "buffer" : 0,
            "byteLength" : 4932,
            "byteOffset" : 57368
        },
        {
            "buffer" : 0,
            "byteLength" : 4932,
            "byteOffset" : 62300
        },
        {
            "buffer" : 0,
            "byteLength" : 3288,
            "byteOffset" : 67232
        },
        {
            "buffer" : 0,
            "byteLength" : 3768,
            "byteOffset" : 70520
        }
    ],
    "buffers" : [
        {
            "byteLength" : 74288,
            "uri" : "untitled.bin"
        }
    ]
}
