<?xml version="1.0" encoding="utf-8"?>
<!-- Generator: Adobe Illustrator 16.0.3, SVG Export Plug-In . SVG Version: 6.00 Build 0)  -->
<!DOCTYPE svg PUBLIC "-//W3C//DTD SVG 1.1//EN" "http://www.w3.org/Graphics/SVG/1.1/DTD/svg11.dtd">
<svg version="1.1" id="Layer_1" xmlns="http://www.w3.org/2000/svg" xmlns:xlink="http://www.w3.org/1999/xlink" x="0px" y="0px"
	 width="144px" height="144px" viewBox="0 0 144 144" enable-background="new 0 0 144 144" xml:space="preserve">
<path fill="#FAFAFA" fill-opacity="0.1961" d="M49.355,73.572l38.061-35.887c1.274-1.201,1.996-2.827,2.032-4.578
	s-0.618-3.405-1.842-4.657c-1.228-1.259-2.874-1.952-4.633-1.952c-1.657,0-3.234,0.626-4.441,1.764L30.535,73.627l47.998,45.258
	c1.206,1.137,2.783,1.763,4.44,1.763c1.759,0,3.405-0.693,4.633-1.952c1.224-1.252,1.878-2.906,1.842-4.658
	c-0.037-1.751-0.758-3.376-2.032-4.576L49.355,73.572z M86.533,117.647c-1.895,1.942-4.997,2.006-6.972,0.146L32.664,73.58h-0.017
	l0.008-0.008l-0.008-0.007h0.017l46.898-44.211c1.975-1.861,5.077-1.797,6.972,0.144c1.943,1.99,1.879,5.188-0.146,7.096
	L47.168,73.572l39.219,36.98C88.412,112.46,88.477,115.658,86.533,117.647z"/>
<path fill="#ADADAD" fill-opacity="0.898" d="M47.168,73.572l39.219-36.979c2.024-1.908,2.089-5.106,0.146-7.096
	c-1.895-1.941-4.997-2.005-6.972-0.144L32.664,73.565h-0.017l0.008,0.007l-0.008,0.008h0.017l46.898,44.213
	c1.975,1.86,5.077,1.797,6.972-0.146c1.943-1.989,1.879-5.188-0.146-7.095L47.168,73.572z"/>
</svg>
